<svg xmlns="http://www.w3.org/2000/svg" width="2000" height="317" viewBox="0 0 2000 317">
  <defs>
    <style>
      .cls-1 {
        fill: #fee9cb;
        fill-rule: evenodd;
      }
    </style>
  </defs>
  <path id="zalories" class="cls-1" d="M294.364-.364H23.117V83.422H150.066L15.077,317.008H282.093V233.645H159.376Zm71.092,317.372,19.042-41.47H514.409l19.465,41.47h83.363L467.861-.364H430.2L282.093,317.008h83.363Zm84.209-181.537,32.16,69.822H417.081ZM625.7,317.008H823.32V233.222H709.066V-0.364H625.7V317.008ZM830.088,158.745A158.022,158.022,0,0,0,988.35,317.008c87.6,0,158.69-70.668,158.69-158.263S1075.95-.364,988.35-0.364,830.088,71.15,830.088,158.745Zm234.012-.423a75.946,75.946,0,0,1-75.75,75.746c-41.47,0-75.323-34.276-75.323-75.746,0-41.893,33.853-75.746,75.323-75.746A75.675,75.675,0,0,1,1064.1,158.322Zm387.19,158.686-67.28-115.1a116.578,116.578,0,0,0,37.66-85.479c0-64.321-52.47-116.793-116.8-116.793H1171.16V317.008h83.36V232.8h51.62l49.09,84.21h96.06ZM1254.52,69.881h51.62a45.518,45.518,0,0,1,45.71,45.7c0,25.39-20.32,45.279-45.71,45.279h-51.62V69.881Zm203.54,247.127h83.36V-0.364h-83.36V317.008Zm113.4,0h197.19V248.879H1654.82v-58.4h100.72V120.237H1654.82V68.611h113.83V-0.364H1571.46V317.008ZM1984.89,96.963c0-54.165-43.58-97.327-97.75-97.327a97.169,97.169,0,0,0-97.33,97.751,96.81,96.81,0,0,0,97.33,97.328,24.384,24.384,0,0,1,24.12,24.12c0,13.118-11,23.7-24.12,23.7a23.754,23.754,0,0,1-23.7-24.12h-74.05c0,55.857,43.59,98.6,97.75,98.6s97.75-43.163,97.75-97.328a98.754,98.754,0,0,0-97.75-99.02,23.659,23.659,0,0,1-23.7-23.7c0-13.118,10.58-24.12,23.7-24.12a24.384,24.384,0,0,1,24.12,24.12h73.63Z"/>
</svg>
